                <svg width="116" height="100" xmlns="http://www.w3.org/2000/svg">
                    <title>Le marché du coin</title>
                    <path
                        d="M85.47 36.776 62.377 2.213C61.374.738 59.687 0 58 0c-1.687 0-3.374.738-4.376 2.266l-23.095 34.51H5.273c-2.9 0-5.273 2.37-5.273 5.268 0 .474.053.949.21 1.423l13.394 48.84A10.485 10.485 0 0 0 23.727 100h68.546c4.85 0 8.911-3.267 10.176-7.692l13.393-48.841.158-1.423c0-2.897-2.373-5.268-5.273-5.268H85.471Zm-43.288 0L58 13.593l15.818 23.183H42.182ZM58 78.926c-5.8 0-10.545-4.743-10.545-10.538C47.455 62.592 52.2 57.85 58 57.85s10.546 4.742 10.546 10.538c0 5.795-4.746 10.537-10.546 10.537Z"
                        fill="#000" />
                </svg>